<svg width="35" height="35" viewBox="0 0 35 35" fill="none" xmlns="http://www.w3.org/2000/svg">
<g id="backward-solid 1">
<path id="Vector" d="M31.4111 4.88086C32.0605 4.34082 32.9697 4.21778 33.7422 4.58008C34.5146 4.94239 35 5.71485 35 6.5625V28.4375C35 29.2852 34.5078 30.0576 33.7422 30.4199C32.9766 30.7822 32.0674 30.666 31.4111 30.1191L19.6875 20.3506V17.5V14.6494L31.4111 4.88086ZM17.5 10.9375V17.5V26.25V28.4375C17.5 29.2852 17.0078 30.0576 16.2422 30.4199C15.4766 30.7822 14.5674 30.666 13.9111 30.1191L0.786133 19.1816C0.287109 18.7647 0 18.1494 0 17.5C0 16.8506 0.287109 16.2354 0.786133 15.8184L13.9111 4.88086C14.5605 4.34082 15.4697 4.21778 16.2422 4.58008C17.0146 4.94239 17.5 5.71485 17.5 6.5625V10.9375Z" fill="#646163"/>
</g>
</svg>
