<svg width="46" height="46" viewBox="0 0 46 46" fill="none" xmlns="http://www.w3.org/2000/svg">
<g id="circle-play-solid 1" clip-path="url(#clip0_27910_5)">
<path id="Vector" d="M0 23C0 16.9 2.42321 11.0499 6.73654 6.73654C11.0499 2.42321 16.9 0 23 0C29.1 0 34.9501 2.42321 39.2635 6.73654C43.5768 11.0499 46 16.9 46 23C46 29.1 43.5768 34.9501 39.2635 39.2635C34.9501 43.5768 29.1 46 23 46C16.9 46 11.0499 43.5768 6.73654 39.2635C2.42321 34.9501 0 29.1 0 23ZM16.9176 13.216C16.2348 13.5934 15.8125 14.3211 15.8125 15.0938V30.9062C15.8125 31.6879 16.2348 32.4066 16.9176 32.784C17.6004 33.1613 18.427 33.1523 19.1008 32.7391L32.0383 24.8328C32.6762 24.4375 33.0715 23.7457 33.0715 22.991C33.0715 22.2363 32.6762 21.5445 32.0383 21.1492L19.1008 13.243C18.4359 12.8387 17.6004 12.8207 16.9176 13.198V13.216Z" fill="#646163"/>
</g>
<defs>
<clipPath id="clip0_27910_5">
<rect width="46" height="46" fill="white"/>
</clipPath>
</defs>
</svg>
