<svg width="35" height="35" viewBox="0 0 35 35" fill="none" xmlns="http://www.w3.org/2000/svg">
<g id="backward-solid 2">
<path id="Vector" d="M3.58887 30.1191C2.93945 30.6592 2.03027 30.7822 1.25781 30.4199C0.485351 30.0576 0 29.2852 0 28.4375V6.5625C0 5.71484 0.492187 4.94238 1.25781 4.58008C2.02344 4.21777 2.93262 4.33398 3.58887 4.88086L15.3125 14.6494V17.5L15.3125 20.3506L3.58887 30.1191ZM17.5 24.0625L17.5 17.5V8.75V6.5625C17.5 5.71484 17.9922 4.94238 18.7578 4.58008C19.5234 4.21777 20.4326 4.33398 21.0889 4.88086L34.2139 15.8184C34.7129 16.2354 35 16.8506 35 17.5C35 18.1494 34.7129 18.7646 34.2139 19.1816L21.0889 30.1191C20.4395 30.6592 19.5303 30.7822 18.7578 30.4199C17.9854 30.0576 17.5 29.2852 17.5 28.4375V24.0625Z" fill="#646163"/>
</g>
</svg>
