<svg width="46" height="46" viewBox="0 0 46 46" fill="none" xmlns="http://www.w3.org/2000/svg">
<g id="Vector">
<path d="M46 23C46 35.7025 35.7025 46 23 46C10.2975 46 0 35.7025 0 23C0 10.2975 10.2975 0 23 0C35.7025 0 46 10.2975 46 23Z" fill="#D9D9D9"/>
<path d="M18 14.5C18 13.6716 18.6716 13 19.5 13C20.3284 13 21 13.6716 21 14.5V33.5C21 34.3284 20.3284 35 19.5 35C18.6716 35 18 34.3284 18 33.5V14.5Z" fill="#646163"/>
<path d="M25 14.5C25 13.6716 25.6716 13 26.5 13C27.3284 13 28 13.6716 28 14.5V33.5C28 34.3284 27.3284 35 26.5 35C25.6716 35 25 34.3284 25 33.5V14.5Z" fill="#646163"/>
</g>
</svg>
